<svg viewBox="0 0 15 15" fill="currentColor" xmlns="http://www.w3.org/2000/svg">
<path fill-rule="evenodd" clip-rule="evenodd" d="M6.58288 2.59792C5.71868 2.20285 4.78693 1.99853 3.84333 2.00001C2.76602 2.00014 1.76714 2.52866 0.983405 2.94334L0.937558 2.96759L0.767343 3.05743C0.602947 3.14385 0.5 3.31427 0.5 3.5V12.5C0.5 12.6751 0.591641 12.8375 0.741575 12.928C0.89151 13.0186 1.07788 13.024 1.23287 12.9425L1.34317 12.8843C2.22742 12.418 3.04664 11.9987 3.84375 12C5.14926 12 6.28382 12.224 7.20314 12.9023C7.3796 13.0325 7.62031 13.0326 7.79679 12.9024C8.74976 12.1995 9.89897 11.9978 11.1562 12C11.9625 12 12.7553 12.4076 13.5949 12.8516L13.7673 12.9426C13.9223 13.024 14.1086 13.0185 14.2585 12.928C14.4084 12.8374 14.5 12.6751 14.5 12.5V3.5C14.5 3.31436 14.3972 3.14401 14.2329 3.05754L14.1236 2.99992L14.0726 2.97301C13.2528 2.54043 12.2257 1.99841 11.1558 2.00001C10.184 2.00007 9.25788 2.21401 8.41725 2.59801C8.23921 2.67934 8.125 2.85708 8.125 3.05281V8.69048C8.125 9.03565 7.84518 9.31548 7.5 9.31548C7.15482 9.31548 6.875 9.03565 6.875 8.69048V3.05266C6.875 2.85698 6.76085 2.67928 6.58288 2.59792Z" fill="currentColor"/>
</svg>
