<svg viewBox="0 0 15 15" fill="currentColor" xmlns="http://www.w3.org/2000/svg">
<path fill-rule="evenodd" clip-rule="evenodd" d="M0.5 6.14286C0.5 5.17695 1.36836 4.5 2.3 4.5H4.5V4.11111C4.5 3.66354 4.70053 3.24809 5.03393 2.95173C5.36542 2.65708 5.80364 2.5 6.25 2.5H8.75C9.19636 2.5 9.63458 2.65708 9.96607 2.95173C10.2995 3.24809 10.5 3.66354 10.5 4.11111V4.5H12.7C13.6316 4.5 14.5 5.17695 14.5 6.14286V11.8571C14.5 12.823 13.6316 13.5 12.7 13.5H2.3C1.36836 13.5 0.5 12.823 0.5 11.8571V6.14286ZM1.5 6.14286C1.5 5.8464 1.7957 5.5 2.3 5.5H4.5V12.5H2.3C1.7957 12.5 1.5 12.1536 1.5 11.8571V6.14286ZM5.5 5.5H9.5V12.5H5.5V5.5ZM12.7 12.5C13.2043 12.5 13.5 12.1536 13.5 11.8571V6.14286C13.5 5.8464 13.2043 5.5 12.7 5.5H10.5V12.5H12.7ZM9.5 4.11111C9.5 3.96931 9.43714 3.81953 9.3017 3.69914C9.16434 3.57705 8.96668 3.5 8.75 3.5H6.25C6.03332 3.5 5.83566 3.57705 5.6983 3.69914C5.56286 3.81953 5.5 3.96931 5.5 4.11111V4.5H9.5V4.11111Z" fill="currentColor"/>
</svg>
