<svg  viewBox="0 0 15 15" fill="none" xmlns="http://www.w3.org/2000/svg">
<path fill-rule="evenodd" clip-rule="evenodd" d="M7.50001 3C4.6129 3 2.37501 5.06864 2.37501 7.5C2.37501 8.37239 2.65816 9.18954 3.15395 9.88466C3.25057 10.0201 3.27347 10.1948 3.21505 10.3506L2.65902 11.8333L4.74257 11.4166C4.84802 11.3955 4.95745 11.409 5.05464 11.455C5.81834 11.8167 6.65329 12.0029 7.49831 12L7.50001 12C10.3871 12 12.625 9.93136 12.625 7.5C12.625 5.06864 10.3871 3 7.50001 3ZM1.37501 7.5C1.37501 4.40886 4.17462 2 7.50001 2C10.8254 2 13.625 4.40886 13.625 7.5C13.625 10.5909 10.8259 12.9996 7.50086 13C6.56316 13.0031 5.636 12.8082 4.7798 12.4289L1.97307 12.9903C1.79505 13.0259 1.61172 12.9622 1.49411 12.8239C1.3765 12.6856 1.3431 12.4944 1.40684 12.3244L2.18811 10.241C1.67293 9.43673 1.37501 8.50062 1.37501 7.5ZM7.50086 13C7.50058 13 7.50029 13 7.50001 13V12.5L7.50171 13C7.50143 13 7.50114 13 7.50086 13ZM4.50001 7.5C4.50001 7.22386 4.72387 7 5.00001 7H5.00626C5.2824 7 5.50626 7.22386 5.50626 7.5C5.50626 7.77614 5.2824 8 5.00626 8H5.00001C4.72387 8 4.50001 7.77614 4.50001 7.5ZM7.00001 7.5C7.00001 7.22386 7.22387 7 7.50001 7H7.50626C7.7824 7 8.00626 7.22386 8.00626 7.5C8.00626 7.77614 7.7824 8 7.50626 8H7.50001C7.22387 8 7.00001 7.77614 7.00001 7.5ZM9.50001 7.5C9.50001 7.22386 9.72387 7 10 7H10.0063C10.2824 7 10.5063 7.22386 10.5063 7.5C10.5063 7.77614 10.2824 8 10.0063 8H10C9.72387 8 9.50001 7.77614 9.50001 7.5Z" fill="currentColor"/>
</svg>
