<svg viewBox="0 0 15 15" fill="currentColor" xmlns="http://www.w3.org/2000/svg">
<path fill-rule="evenodd" clip-rule="evenodd" d="M0.820077 7.49998C0.820077 4.12784 3.87418 1.5 7.50187 1.5C11.1296 1.5 14.1837 4.12784 14.1837 7.49998C14.1837 10.8718 11.1301 13.4995 7.5028 13.5C6.47986 13.5033 5.46842 13.2908 4.53438 12.877L1.4725 13.4894C1.2783 13.5282 1.0783 13.4587 0.950004 13.3079C0.821706 13.157 0.785267 12.9484 0.854806 12.763L1.7071 10.4902C1.14508 9.61277 0.820077 8.59156 0.820077 7.49998ZM4.7746 8.31816C5.22647 8.31816 5.59278 7.95185 5.59278 7.49998C5.59278 7.04811 5.22647 6.6818 4.7746 6.6818C4.32273 6.6818 3.95642 7.04811 3.95642 7.49998C3.95642 7.95185 4.32273 8.31816 4.7746 8.31816ZM8.32004 7.49998C8.32004 7.95185 7.95373 8.31816 7.50186 8.31816C7.05 8.31816 6.68369 7.95185 6.68369 7.49998C6.68369 7.04811 7.05 6.6818 7.50186 6.6818C7.95373 6.6818 8.32004 7.04811 8.32004 7.49998ZM10.2291 8.31816C10.681 8.31816 11.0473 7.95185 11.0473 7.49998C11.0473 7.04811 10.681 6.6818 10.2291 6.6818C9.77726 6.6818 9.41095 7.04811 9.41095 7.49998C9.41095 7.95185 9.77726 8.31816 10.2291 8.31816Z" fill="currentColor"/>
</svg>
