<svg  viewBox="0 0 15 15" fill="none" xmlns="http://www.w3.org/2000/svg">
<path fill-rule="evenodd" clip-rule="evenodd" d="M11.7816 5.03157C12.0062 4.80702 12.0062 4.44295 11.7816 4.2184C11.5571 3.99385 11.193 3.99385 10.9685 4.2184L7.50005 7.68682L4.03164 4.2184C3.80708 3.99385 3.44301 3.99385 3.21846 4.2184C2.99391 4.44295 2.99391 4.80702 3.21846 5.03157L6.68688 8.49999L3.21846 11.9684C2.99391 12.193 2.99391 12.557 3.21846 12.7816C3.44301 13.0061 3.80708 13.0061 4.03164 12.7816L7.50005 9.31316L10.9685 12.7816C11.193 13.0061 11.5571 13.0061 11.7816 12.7816C12.0062 12.557 12.0062 12.193 11.7816 11.9684L8.31322 8.49999L11.7816 5.03157Z" fill="currentColor"/>
</svg>
