<svg viewBox="0 0 15 15" fill="none" xmlns="http://www.w3.org/2000/svg">
<path fill-rule="evenodd" clip-rule="evenodd" d="M11.0355 3.96437C11.2308 4.15963 11.2308 4.47621 11.0355 4.67147L8.20711 7.4999L11.0355 10.3283C11.2308 10.5236 11.2308 10.8402 11.0355 11.0354C10.8403 11.2307 10.5237 11.2307 10.3284 11.0354L7.5 8.20701L4.67157 11.0354C4.47631 11.2307 4.15973 11.2307 3.96447 11.0354C3.7692 10.8402 3.7692 10.5236 3.96447 10.3283L6.79289 7.4999L3.96447 4.67147C3.7692 4.47621 3.7692 4.15963 3.96447 3.96437C4.15973 3.7691 4.47631 3.76911 4.67157 3.96437L7.5 6.79279L10.3284 3.96437C10.5237 3.7691 10.8403 3.7691 11.0355 3.96437Z" fill="currentColor"/>
</svg>
