<svg viewBox="0 0 15 15" fill="currentColor" xmlns="http://www.w3.org/2000/svg">
<path fill-rule="evenodd" clip-rule="evenodd" d="M5.10577 7.52692C5.54247 7.27479 5.69209 6.71638 5.43996 6.27968C5.18783 5.84298 4.62942 5.69335 4.19272 5.94548C3.75602 6.19761 3.6064 6.75602 3.85853 7.19272C4.11066 7.62942 4.66906 7.77905 5.10577 7.52692Z" fill="currentColor"/>
<path fill-rule="evenodd" clip-rule="evenodd" d="M7.95661 8.29079C8.39332 8.03866 8.54294 7.48025 8.29081 7.04355C8.03868 6.60684 7.48027 6.45722 7.04357 6.70935C6.60687 6.96148 6.45724 7.51989 6.70937 7.95659C6.9615 8.39329 7.51991 8.54292 7.95661 8.29079Z" fill="currentColor"/>
<path fill-rule="evenodd" clip-rule="evenodd" d="M8.46418 1.16995L1.53598 5.16995C1.05769 5.4461 0.893811 6.05769 1.16995 6.53598L5.16995 13.4642C5.44609 13.9425 6.05769 14.1063 6.53598 13.8302L13.4642 9.83021C13.9425 9.55406 14.1063 8.94247 13.8302 8.46418L9.83021 1.53598C9.55406 1.05769 8.94247 0.893811 8.46418 1.16995ZM1.03598 4.30393C0.0793931 4.85621 -0.248357 6.07939 0.303928 7.03598L4.30393 13.9642C4.85621 14.9208 6.07939 15.2485 7.03598 14.6962L13.9642 10.6962C14.9208 10.1439 15.2485 8.92077 14.6962 7.96418L10.6962 1.03598C10.1439 0.0793933 8.92077 -0.248357 7.96418 0.303928L1.03598 4.30393Z" fill="currentColor"/>
<path d="M11.1416 7.80743C11.3938 8.24414 11.2441 8.80254 10.8074 9.05467C10.3707 9.3068 9.81231 9.15718 9.56018 8.72048C9.30805 8.28378 9.45768 7.72537 9.89438 7.47324C10.3311 7.22111 10.8895 7.37073 11.1416 7.80743Z" fill="currentColor"/>
</svg>
