<svg  viewBox="0 0 15 15" fill="none" xmlns="http://www.w3.org/2000/svg">
<path fill-rule="evenodd" clip-rule="evenodd" d="M11.8536 2.14645C11.6583 1.95118 11.3417 1.95118 11.1465 2.14645L3.71455 9.57836C3.62459 9.66832 3.55263 9.77461 3.50251 9.89155L2.04044 13.303C1.9599 13.491 2.00189 13.709 2.14646 13.8536C2.29103 13.9981 2.50905 14.0401 2.69697 13.9596L6.10847 12.4975C6.2254 12.4474 6.3317 12.3754 6.42166 12.2855L13.8536 4.85355C14.0488 4.65829 14.0488 4.34171 13.8536 4.14645L11.8536 2.14645ZM4.42166 10.2855L11.5 3.20711L12.7929 4.5L5.71455 11.5784L4.21924 12.2192L3.78081 11.7808L4.42166 10.2855Z" fill="currentColor"/>
</svg>
