<svg  viewBox="0 0 15 15" fill="none" xmlns="http://www.w3.org/2000/svg">
<path fill-rule="evenodd" clip-rule="evenodd" d="M2.97995 1.96468C3.28551 1.6659 3.6976 1.5 4.125 1.5H8.0625C8.19316 1.5 8.31863 1.55115 8.41206 1.6425L12.3496 5.4925C12.4458 5.58657 12.5 5.71544 12.5 5.85V11.9C12.5 12.328 12.326 12.7362 12.0201 13.0353C11.7145 13.3341 11.3024 13.5 10.875 13.5H4.125C3.6976 13.5 3.28551 13.3341 2.97995 13.0353C2.674 12.7362 2.5 12.328 2.5 11.9V3.1C2.5 2.67198 2.674 2.26383 2.97995 1.96468ZM4.125 2.5C3.95566 2.5 3.79545 2.56588 3.67906 2.67969C3.56305 2.79312 3.5 2.94454 3.5 3.1V11.9C3.5 12.0555 3.56305 12.2069 3.67906 12.3203C3.79545 12.4341 3.95566 12.5 4.125 12.5H10.875C11.0443 12.5 11.2045 12.4341 11.3209 12.3203C11.4369 12.2069 11.5 12.0555 11.5 11.9V6.35H8.0625C7.78636 6.35 7.5625 6.12614 7.5625 5.85V2.5H4.125ZM8.5625 3.18818L10.7734 5.35H8.5625V3.18818Z" fill="currentColor"/>
</svg>
