<svg viewBox="0 0 15 15" fill="currentColor" xmlns="http://www.w3.org/2000/svg">
<path fill-rule="evenodd" clip-rule="evenodd" d="M2 4.18367C2 2.97766 2.97766 2 4.18367 2C5.38968 2 6.36735 2.97766 6.36735 4.18367C6.36735 5.38968 5.38968 6.36735 4.18367 6.36735C2.97766 6.36735 2 5.38968 2 4.18367ZM4.18367 4.86735C4.56126 4.86735 4.86735 4.56126 4.86735 4.18367C4.86735 3.80609 4.56126 3.5 4.18367 3.5C3.80609 3.5 3.5 3.80609 3.5 4.18367C3.5 4.56126 3.80609 4.86735 4.18367 4.86735Z" fill="currentColor"/>
<path fill-rule="evenodd" clip-rule="evenodd" d="M10.6837 2C9.47766 2 8.5 2.97766 8.5 4.18367C8.5 5.38968 9.47766 6.36735 10.6837 6.36735C11.8897 6.36735 12.8673 5.38968 12.8673 4.18367C12.8673 2.97766 11.8897 2 10.6837 2ZM10.6837 4.86735C11.0613 4.86735 11.3673 4.56126 11.3673 4.18367C11.3673 3.80609 11.0613 3.5 10.6837 3.5C10.3061 3.5 10 3.80609 10 4.18367C10 4.56126 10.3061 4.86735 10.6837 4.86735Z" fill="currentColor"/>
<path fill-rule="evenodd" clip-rule="evenodd" d="M10.6837 8.5C9.47766 8.5 8.5 9.47766 8.5 10.6837C8.5 11.8897 9.47766 12.8673 10.6837 12.8673C11.8897 12.8673 12.8673 11.8897 12.8673 10.6837C12.8673 9.47766 11.8897 8.5 10.6837 8.5ZM10.6837 11.3673C11.0613 11.3673 11.3673 11.0613 11.3673 10.6837C11.3673 10.3061 11.0613 10 10.6837 10C10.3061 10 10 10.3061 10 10.6837C10 11.0613 10.3061 11.3673 10.6837 11.3673Z" fill="currentColor"/>
<path fill-rule="evenodd" clip-rule="evenodd" d="M4.18367 8.5C2.97766 8.5 2 9.47766 2 10.6837C2 11.8897 2.97766 12.8673 4.18367 12.8673C5.38968 12.8673 6.36735 11.8897 6.36735 10.6837C6.36735 9.47766 5.38968 8.5 4.18367 8.5ZM4.18367 11.3673C4.56126 11.3673 4.86735 11.0613 4.86735 10.6837C4.86735 10.3061 4.56126 10 4.18367 10C3.80609 10 3.5 10.3061 3.5 10.6837C3.5 11.0613 3.80609 11.3673 4.18367 11.3673Z" fill="currentColor"/>
</svg>
