<svg viewBox="0 0 15 15" fill="currentColor" xmlns="http://www.w3.org/2000/svg">
<path fill-rule="evenodd" clip-rule="evenodd" d="M8.79858 2.27075C9.21201 2.0922 9.65591 2 10.1047 2C10.5536 2 10.9975 2.0922 11.4109 2.27075C11.8243 2.44927 12.1985 2.71035 12.5127 3.038C12.8269 3.36542 13.0752 3.75304 13.2442 4.17823C13.4132 4.60345 13.5 5.05855 13.5 5.5177C13.5 5.97685 13.4132 6.43196 13.2442 6.85718C13.0751 7.2824 12.8269 7.67005 12.5126 7.99749L7.86066 12.8462C7.76636 12.9444 7.63606 13 7.49986 13C7.36366 13 7.23336 12.9444 7.13906 12.8462L2.48712 7.99749C1.85287 7.33641 1.5 6.44405 1.5 5.5177C1.5 4.59136 1.85287 3.699 2.48712 3.03791C3.12206 2.37613 3.98774 2.00029 4.89498 2.00029C5.80223 2.00029 6.66791 2.37613 7.30284 3.03791L7.49986 3.24326L7.69679 3.038C8.01099 2.71039 8.38524 2.44926 8.79858 2.27075Z" fill="currentColor"/>
</svg>
