<svg viewBox="0 0 15 15" fill="currentColor" xmlns="http://www.w3.org/2000/svg">
<path fill-rule="evenodd" clip-rule="evenodd" d="M8.79858 2.27075C9.21201 2.0922 9.65591 2 10.1047 2C10.5536 2 10.9975 2.0922 11.4109 2.27075C11.8243 2.44927 12.1985 2.71035 12.5127 3.038C12.8269 3.36542 13.0752 3.75304 13.2442 4.17823C13.4132 4.60345 13.5 5.05855 13.5 5.5177C13.5 5.97685 13.4132 6.43196 13.2442 6.85718C13.0751 7.2824 12.8269 7.67005 12.5126 7.99749L7.86066 12.8462C7.76636 12.9444 7.63606 13 7.49986 13C7.36366 13 7.23336 12.9444 7.13906 12.8462L2.48712 7.99749C1.85287 7.33641 1.5 6.44405 1.5 5.5177C1.5 4.59136 1.85287 3.699 2.48712 3.03791C3.12206 2.37613 3.98774 2.00029 4.89498 2.00029C5.80223 2.00029 6.66791 2.37613 7.30284 3.03791L7.49986 3.24326L7.69679 3.038C8.01099 2.71039 8.38524 2.44926 8.79858 2.27075ZM11.7909 3.73015C11.5676 3.49725 11.3035 3.31365 11.0144 3.18879C10.7254 3.06396 10.4163 3 10.1047 3C9.79316 3 9.48411 3.06396 9.19506 3.18879C8.90595 3.31365 8.6419 3.49724 8.41855 3.73015L7.86066 4.31163C7.76636 4.40991 7.63606 4.46547 7.49986 4.46547C7.36366 4.46547 7.23336 4.40991 7.13906 4.31163L6.58125 3.73023C6.13036 3.26027 5.52333 3.00029 4.89498 3.00029C4.26663 3.00029 3.65961 3.26027 3.20872 3.73023C2.75715 4.2009 2.5 4.84352 2.5 5.5177C2.5 6.19189 2.75715 6.83451 3.20872 7.30518L7.49986 11.7778L11.791 7.30518C12.0145 7.07235 12.1929 6.7947 12.3149 6.48776C12.437 6.1808 12.5 5.85111 12.5 5.5177C12.5 5.1843 12.437 4.85461 12.3149 4.54764C12.1929 4.24071 12.0144 3.96298 11.7909 3.73015Z" fill="currentColor"/>
</svg>
