<svg viewBox="0 0 15 15" fill="currentColor" xmlns="http://www.w3.org/2000/svg">
<path fill-rule="evenodd" clip-rule="evenodd" d="M4.375 1.75C2.92525 1.75 1.75 2.92525 1.75 4.375V10.625C1.75 12.0747 2.92525 13.25 4.375 13.25H10.625C12.0747 13.25 13.25 12.0747 13.25 10.625V4.375C13.25 2.92525 12.0747 1.75 10.625 1.75H4.375ZM0.75 4.375C0.75 2.37297 2.37297 0.75 4.375 0.75H10.625C12.627 0.75 14.25 2.37297 14.25 4.375V10.625C14.25 12.627 12.627 14.25 10.625 14.25H4.375C2.37297 14.25 0.75 12.627 0.75 10.625V4.375Z" fill="currentColor"/>
<path fill-rule="evenodd" clip-rule="evenodd" d="M7.82047 5.4946C7.40435 5.43289 6.97936 5.50397 6.60596 5.69772C6.23256 5.89147 5.92976 6.19802 5.74063 6.57378C5.5515 6.94954 5.48567 7.37537 5.5525 7.7907C5.61934 8.20603 5.81543 8.58972 6.11289 8.88718C6.41035 9.18464 6.79403 9.38073 7.20936 9.44756C7.62469 9.5144 8.05052 9.44856 8.42628 9.25943C8.80204 9.0703 9.1086 8.7675 9.30235 8.3941C9.4961 8.02071 9.56717 7.59572 9.50547 7.1796C9.44253 6.75514 9.24474 6.36217 8.94132 6.05875C8.63789 5.75533 8.24493 5.55754 7.82047 5.4946ZM6.14539 4.81009C6.70549 4.51947 7.34297 4.41285 7.96715 4.50541C8.60384 4.59983 9.19329 4.89651 9.64842 5.35164C10.1036 5.80678 10.4002 6.39622 10.4947 7.03291C10.5872 7.6571 10.4806 8.29458 10.19 8.85468C9.89935 9.41477 9.43951 9.86897 8.87587 10.1527C8.31223 10.4364 7.67349 10.5351 7.05049 10.4349C6.4275 10.3346 5.85197 10.0405 5.40578 9.59428C4.95959 9.14809 4.66545 8.57257 4.5652 7.94957C4.46495 7.32658 4.5637 6.68783 4.8474 6.12419C5.13109 5.56055 5.58529 5.10072 6.14539 4.81009Z" fill="currentColor"/>
<path fill-rule="evenodd" clip-rule="evenodd" d="M10.4375 4.0625C10.4375 3.78636 10.6614 3.5625 10.9375 3.5625H10.9442C11.2203 3.5625 11.4442 3.78636 11.4442 4.0625C11.4442 4.33864 11.2203 4.5625 10.9442 4.5625H10.9375C10.6614 4.5625 10.4375 4.33864 10.4375 4.0625Z" fill="currentColor"/>
</svg>
