<svg viewBox="0 0 15 15" fill="currentColor" xmlns="http://www.w3.org/2000/svg">
<path fill-rule="evenodd" clip-rule="evenodd" d="M2.14902 4.00008C2.14902 2.9779 2.97765 2.14927 3.99983 2.14927C5.022 2.14927 5.85064 2.9779 5.85064 4.00008C5.85064 5.02225 5.022 5.85089 3.99983 5.85089C2.97765 5.85089 2.14902 5.02225 2.14902 4.00008ZM3.99983 1.24927C2.4806 1.24927 1.24902 2.48085 1.24902 4.00008C1.24902 5.51931 2.4806 6.75089 3.99983 6.75089C5.51906 6.75089 6.75064 5.51931 6.75064 4.00008C6.75064 2.48085 5.51906 1.24927 3.99983 1.24927ZM5.82015 11.0002L2.49979 12.837V9.16343L5.82015 11.0002ZM2.63864 8.21171C2.17209 7.95362 1.59979 8.29105 1.59979 8.82423V13.1762C1.59979 13.7094 2.17209 14.0468 2.63864 13.7887L6.57216 11.6127C7.0537 11.3463 7.0537 10.6541 6.57216 10.3877L2.63864 8.21171ZM8.29982 9.00015C8.29982 8.61355 8.61322 8.30015 8.99982 8.30015H12.9998C13.3864 8.30015 13.6998 8.61355 13.6998 9.00015V13.0001C13.6998 13.3867 13.3864 13.7001 12.9998 13.7001H8.99982C8.61322 13.7001 8.29982 13.3867 8.29982 13.0001V9.00015ZM9.19982 9.20015V12.8001H12.7998V9.20015H9.19982ZM13.443 2.19323C13.6187 2.01749 13.6187 1.73257 13.443 1.55683C13.2673 1.3811 12.9824 1.3811 12.8066 1.55683L10.9998 3.36365L9.19302 1.55686C9.01729 1.38112 8.73236 1.38112 8.55663 1.55686C8.38089 1.73259 8.38089 2.01752 8.55663 2.19325L10.3634 4.00004L8.55663 5.80683C8.38089 5.98257 8.38089 6.26749 8.55663 6.44323C8.73236 6.61897 9.01729 6.61897 9.19302 6.44323L10.9998 4.63644L12.8066 6.44326C12.9824 6.61899 13.2673 6.61899 13.443 6.44326C13.6187 6.26752 13.6187 5.98259 13.443 5.80686L11.6362 4.00004L13.443 2.19323Z" fill="currentColor"/>
</svg>
