<svg  viewBox="0 0 15 15" fill="none" xmlns="http://www.w3.org/2000/svg">
<path fill-rule="evenodd" clip-rule="evenodd" d="M12.8742 2.06747C12.9863 2.16247 13.051 2.302 13.051 2.44898V9.7449C13.051 10.9509 12.0734 11.9286 10.8673 11.9286C9.66133 11.9286 8.68367 10.9509 8.68367 9.7449C8.68367 8.53889 9.66133 7.56122 10.8673 7.56122C11.3036 7.56122 11.71 7.68916 12.051 7.90955V3.03921L6.31632 3.99499V10.8659V10.8673C6.31632 12.0734 5.33866 13.051 4.13265 13.051C2.92664 13.051 1.94897 12.0734 1.94897 10.8673C1.94897 9.66134 2.92664 8.68367 4.13265 8.68367C4.56891 8.68367 4.97529 8.81161 5.31632 9.032V3.57143C5.31632 3.32701 5.49303 3.11841 5.73412 3.07823L12.4688 1.95578C12.6138 1.93162 12.7621 1.97247 12.8742 2.06747ZM12.051 9.7449C12.051 9.09117 11.5211 8.56122 10.8673 8.56122C10.2136 8.56122 9.68367 9.09117 9.68367 9.7449C9.68367 10.3986 10.2136 10.9286 10.8673 10.9286C11.5211 10.9286 12.051 10.3986 12.051 9.7449ZM5.31632 10.8666V10.8673C5.31632 11.5211 4.78637 12.051 4.13265 12.051C3.47892 12.051 2.94897 11.5211 2.94897 10.8673C2.94897 10.2136 3.47892 9.68367 4.13265 9.68367C4.78612 9.68367 5.31591 10.2132 5.31632 10.8666Z" fill="currentColor"/>
</svg>
