<svg viewBox="0 0 15 15" fill="currentColor" xmlns="http://www.w3.org/2000/svg">
<path fill-rule="evenodd" clip-rule="evenodd" d="M12.7945 1.87672C12.9627 2.01922 13.0597 2.22852 13.0597 2.44898V9.7449C13.0597 9.79288 13.0552 9.83982 13.0466 9.88529C12.9742 11.0259 12.0262 11.9286 10.8673 11.9286C9.66133 11.9286 8.68367 10.9509 8.68367 9.74491C8.68367 8.5389 9.66133 7.56123 10.8673 7.56123C11.1093 7.56123 11.3421 7.6006 11.5597 7.67327V3.33433L6.325 4.20677V10.8673C6.325 10.9153 6.32049 10.9623 6.31188 11.0077C6.23951 12.1483 5.2915 13.051 4.13265 13.051C2.92664 13.051 1.94897 12.0734 1.94897 10.8674C1.94897 9.66135 2.92664 8.68368 4.13265 8.68368C4.37464 8.68368 4.60745 8.72305 4.825 8.79572V3.57143C4.825 3.2048 5.09006 2.89191 5.4517 2.83163L12.1864 1.70918C12.4039 1.67294 12.6263 1.73421 12.7945 1.87672ZM10.8673 10.4286C11.2449 10.4286 11.5509 10.1225 11.5509 9.7449C11.5509 9.36732 11.2449 9.06122 10.8673 9.06122C10.4897 9.06122 10.1836 9.36732 10.1836 9.7449C10.1836 10.1225 10.4897 10.4286 10.8673 10.4286ZM4.81632 10.8673C4.81632 11.2449 4.51023 11.551 4.13265 11.551C3.75507 11.551 3.44897 11.2449 3.44897 10.8673C3.44897 10.4898 3.75507 10.1837 4.13265 10.1837C4.51023 10.1837 4.81632 10.4898 4.81632 10.8673Z" fill="currentColor"/>
</svg>
