<svg viewBox="0 0 24 24" fill="none" xmlns="http://www.w3.org/2000/svg">
<path fill-rule="evenodd" clip-rule="evenodd" d="M12 0C5.37258 0 0 5.37258 0 12C0 18.6274 5.37258 24 12 24C18.6274 24 24 18.6274 24 12C24 5.37258 18.6274 0 12 0ZM11.1925 7.77861C10.7941 7.39614 10.1611 7.40906 9.77861 7.80747C9.39614 8.20588 9.40906 8.83891 9.80747 9.22139L12.7019 12L9.80747 14.7786C9.40906 15.1611 9.39614 15.7941 9.77861 16.1925C10.1611 16.5909 10.7941 16.6039 11.1925 16.2214L14.8384 12.7214C15.0348 12.5328 15.1458 12.2723 15.1458 12C15.1458 11.7277 15.0348 11.4672 14.8384 11.2786L11.1925 7.77861Z" fill="currentColor"/>
</svg>
