<svg viewBox="0 0 15 15" fill="currentColor" xmlns="http://www.w3.org/2000/svg">
<path fill-rule="evenodd" clip-rule="evenodd" d="M3.5 2.55C3.5 2.24624 3.75584 2 4.07143 2H5.21429C5.52988 2 5.78571 2.24624 5.78571 2.55V12.45C5.78571 12.7538 5.52988 13 5.21429 13H4.07143C3.75584 13 3.5 12.7538 3.5 12.45V2.55Z" fill="currentColor"/>
<path fill-rule="evenodd" clip-rule="evenodd" d="M9.21429 2.55C9.21429 2.24624 9.47012 2 9.78571 2H10.9286C11.2442 2 11.5 2.24624 11.5 2.55V12.45C11.5 12.7538 11.2442 13 10.9286 13H9.78571C9.47012 13 9.21429 12.7538 9.21429 12.45V2.55Z" fill="currentColor"/>
</svg>
