<svg viewBox="0 0 15 15" fill="currentColor" xmlns="http://www.w3.org/2000/svg">
<path fill-rule="evenodd" clip-rule="evenodd" d="M7.05914 5.61343C7.47034 5.59065 7.88914 5.73633 8.20327 6.05046C8.78906 6.63625 8.78906 7.586 8.20327 8.17178C7.61749 8.75757 6.66774 8.75757 6.08195 8.17178C5.76782 7.85765 5.62215 7.43885 5.64492 7.02765L2.55864 3.94136C2.88555 4.94528 3.72051 7.42214 4.36025 9.31989L4.36026 9.31991L4.36028 9.31999L4.36032 9.32009L4.36037 9.32024L4.59268 10.0095C4.62123 10.1008 4.73485 10.3024 4.96095 10.3777C5.12009 10.4308 6.26721 10.8263 7.30998 11.1864L11.2178 7.27863C10.8577 6.23586 10.4621 5.08873 10.4091 4.9296C10.3337 4.70349 10.1322 4.58987 10.0408 4.56132L9.35148 4.32897C7.45396 3.68931 4.97736 2.85444 3.97313 2.52742L7.05914 5.61343ZM8.70732 12.6175C8.88435 13.1635 9.59079 13.6358 10.181 13.0456L11.5182 11.7084L11.7397 11.4868L13.0769 10.1496C13.6671 9.55942 13.1948 8.85299 12.6488 8.67596L8.70732 12.6175Z" fill="currentColor"/>
<path d="M7.05914 5.61343L6.70558 5.96699C6.80615 6.06755 6.94479 6.12053 7.08679 6.11267L7.05914 5.61343ZM5.64492 7.02765L6.14416 7.0553C6.15203 6.9133 6.09904 6.77466 5.99848 6.67409L5.64492 7.02765ZM2.55864 3.94136L2.91219 3.58781C2.74868 3.4243 2.49438 3.39424 2.29725 3.51513C2.10013 3.63601 2.01161 3.8763 2.08321 4.09618L2.55864 3.94136ZM4.36025 9.31989L4.83459 9.16178L4.83405 9.16017L4.36025 9.31989ZM4.36026 9.31991L3.88591 9.47803L3.88639 9.47945L4.36026 9.31991ZM4.36028 9.31999L3.88642 9.47953L3.88646 9.47966L4.36028 9.31999ZM4.36032 9.32009L3.8865 9.47976L3.88672 9.48041L4.36032 9.32009ZM4.36037 9.32024L4.83417 9.16053L4.83397 9.15992L4.36037 9.32024ZM4.59268 10.0095L5.07004 9.86028L5.06649 9.84975L4.59268 10.0095ZM4.96095 10.3777L5.11907 9.90338L5.11907 9.90338L4.96095 10.3777ZM7.30998 11.1864L7.14679 11.659C7.32763 11.7215 7.52825 11.6752 7.66353 11.5399L7.30998 11.1864ZM11.2178 7.27863L11.5713 7.63218C11.7066 7.4969 11.7528 7.29628 11.6904 7.11544L11.2178 7.27863ZM10.4091 4.9296L10.8834 4.77148L10.8834 4.77148L10.4091 4.9296ZM10.0408 4.56132L9.88106 5.03525L9.89167 5.03856L10.0408 4.56132ZM9.35148 4.32897L9.19176 4.80277L9.19177 4.80278L9.35148 4.32897ZM3.97313 2.52742L4.12795 2.05199C3.90807 1.98039 3.66778 2.06891 3.54689 2.26603C3.426 2.46316 3.45606 2.71746 3.61957 2.88098L3.97313 2.52742ZM10.181 13.0456L10.5346 13.3991L10.5346 13.3991L10.181 13.0456ZM8.70732 12.6175L8.35377 12.2639C8.22089 12.3968 8.17374 12.593 8.2317 12.7717L8.70732 12.6175ZM11.5182 11.7084L11.1646 11.3548L11.1646 11.3548L11.5182 11.7084ZM11.7397 11.4868L12.0933 11.8404L12.0933 11.8404L11.7397 11.4868ZM13.0769 10.1496L12.7234 9.79609L12.7234 9.79609L13.0769 10.1496ZM12.6488 8.67596L12.8031 8.20034C12.6243 8.14238 12.4282 8.18953 12.2953 8.3224L12.6488 8.67596ZM9.82746 12.692C9.63219 12.8873 9.63219 13.2039 9.82746 13.3991C10.0227 13.5944 10.3393 13.5944 10.5346 13.3991L9.82746 12.692ZM12.0933 11.8404C12.2886 11.6451 12.2886 11.3285 12.0933 11.1333C11.898 10.938 11.5815 10.938 11.3862 11.1333L12.0933 11.8404ZM13.4305 10.5032C13.6257 10.3079 13.6257 9.99135 13.4305 9.79609C13.2352 9.60083 12.9186 9.60083 12.7234 9.79609L13.4305 10.5032ZM11.1646 11.3548C10.9694 11.5501 10.9694 11.8667 11.1646 12.0619C11.3599 12.2572 11.6765 12.2572 11.8717 12.0619L11.1646 11.3548ZM7.08679 6.11267C7.362 6.09742 7.64033 6.19463 7.84972 6.40402L8.55683 5.69691C8.13795 5.27803 7.57869 5.08389 7.03148 5.1142L7.08679 6.11267ZM7.84972 6.40402C8.24025 6.79454 8.24025 7.4277 7.84972 7.81823L8.55683 8.52534C9.33788 7.74429 9.33788 6.47796 8.55683 5.69691L7.84972 6.40402ZM7.84972 7.81823C7.4592 8.20875 6.82603 8.20875 6.43551 7.81823L5.7284 8.52534C6.50945 9.30638 7.77578 9.30638 8.55683 8.52534L7.84972 7.81823ZM6.43551 7.81823C6.22612 7.60884 6.12891 7.33051 6.14416 7.0553L5.14569 6.99999C5.11538 7.5472 5.30952 8.10646 5.7284 8.52534L6.43551 7.81823ZM2.20509 4.29491L5.29137 7.3812L5.99848 6.67409L2.91219 3.58781L2.20509 4.29491ZM4.83405 9.16017C4.19374 7.26071 3.35994 4.78729 3.03407 3.78655L2.08321 4.09618C2.41115 5.10326 3.24728 7.58357 3.88645 9.47961L4.83405 9.16017ZM4.8346 9.1618L4.83459 9.16178L3.88591 9.47801L3.88592 9.47803L4.8346 9.1618ZM4.83415 9.16045L4.83412 9.16038L3.88639 9.47945L3.88642 9.47953L4.83415 9.16045ZM4.83414 9.16042L4.8341 9.16032L3.88646 9.47966L3.8865 9.47976L4.83414 9.16042ZM4.83397 9.15992L4.83392 9.15977L3.88672 9.48041L3.88677 9.48055L4.83397 9.15992ZM5.06649 9.84975L4.83417 9.16053L3.88656 9.47994L4.11887 10.1692L5.06649 9.84975ZM5.11907 9.90338C5.11131 9.9008 5.0993 9.8942 5.08452 9.87672C5.07729 9.86817 5.07166 9.85955 5.06805 9.85302C5.06634 9.84992 5.06563 9.84828 5.06574 9.84854C5.06582 9.84872 5.06623 9.84966 5.06689 9.85142C5.06753 9.85313 5.0686 9.8561 5.06992 9.86031L4.11544 10.1586C4.17422 10.3467 4.37557 10.7096 4.80284 10.8521L5.11907 9.90338ZM7.47317 10.7138C6.43287 10.3546 5.28156 9.95755 5.11907 9.90338L4.80284 10.8521C4.95862 10.904 6.10156 11.2981 7.14679 11.659L7.47317 10.7138ZM10.8642 6.92507L6.95643 10.8328L7.66353 11.5399L11.5713 7.63218L10.8642 6.92507ZM9.93473 5.08771C9.9889 5.2502 10.3859 6.40152 10.7451 7.44181L11.6904 7.11544C11.3295 6.0702 10.9353 4.92726 10.8834 4.77148L9.93473 5.08771ZM9.89167 5.03856C9.88745 5.03724 9.88448 5.03617 9.88277 5.03553C9.88101 5.03487 9.88007 5.03446 9.87989 5.03438C9.87963 5.03427 9.88127 5.03498 9.88437 5.03669C9.8909 5.0403 9.89952 5.04593 9.90807 5.05316C9.92555 5.06794 9.93215 5.07995 9.93473 5.08771L10.8834 4.77148C10.741 4.34421 10.378 4.14286 10.1899 4.08408L9.89167 5.03856ZM9.19177 4.80278L9.8811 5.03513L10.2005 4.08751L9.51118 3.85516L9.19177 4.80278ZM3.81831 3.00285C4.81937 3.32884 7.29253 4.16254 9.19176 4.80277L9.5112 3.85517C7.61539 3.21608 5.13534 2.38005 4.12795 2.05199L3.81831 3.00285ZM7.41269 5.25988L4.32668 2.17387L3.61957 2.88098L6.70558 5.96699L7.41269 5.25988ZM9.82746 12.692C9.74054 12.7789 9.67201 12.8055 9.62923 12.814C9.58529 12.8228 9.53638 12.8187 9.48008 12.7955C9.35307 12.743 9.22972 12.6075 9.18294 12.4633L8.2317 12.7717C8.36196 13.1734 8.68034 13.5471 9.09836 13.7197C9.55703 13.9092 10.0961 13.8375 10.5346 13.3991L9.82746 12.692ZM11.1646 11.3548L9.82745 12.692L10.5346 13.3991L11.8717 12.0619L11.1646 11.3548ZM11.3862 11.1333L11.1646 11.3548L11.8717 12.0619L12.0933 11.8404L11.3862 11.1333ZM12.7234 9.79609L11.3862 11.1333L12.0933 11.8404L13.4305 10.5032L12.7234 9.79609ZM12.4946 9.15158C12.6389 9.19835 12.7744 9.32171 12.8268 9.44872C12.8501 9.50501 12.8541 9.55392 12.8454 9.59787C12.8369 9.64064 12.8103 9.70917 12.7234 9.79609L13.4305 10.5032C13.8689 10.0648 13.9405 9.52566 13.7511 9.067C13.5785 8.64898 13.2048 8.3306 12.8031 8.20034L12.4946 9.15158ZM9.06087 12.971L13.0024 9.02951L12.2953 8.3224L8.35377 12.2639L9.06087 12.971ZM10.5346 13.3991L12.0933 11.8404L11.3862 11.1333L9.82746 12.692L10.5346 13.3991ZM12.7234 9.79609L11.1646 11.3548L11.8717 12.0619L13.4305 10.5032L12.7234 9.79609Z" fill="currentColor"/>
</svg>
