<svg viewBox="0 0 15 15" fill="currentColor" xmlns="http://www.w3.org/2000/svg">
<path fill-rule="evenodd" clip-rule="evenodd" d="M2.18342 2.18342C2.621 1.74583 3.21449 1.5 3.83333 1.5C4.45217 1.5 5.04566 1.74583 5.48325 2.18342C5.92083 2.621 6.16667 3.21449 6.16667 3.83333V5.16667H8.83333V3.83333C8.83333 3.21449 9.07917 2.621 9.51675 2.18342C9.95434 1.74583 10.5478 1.5 11.1667 1.5C11.7855 1.5 12.379 1.74583 12.8166 2.18342C13.2542 2.621 13.5 3.21449 13.5 3.83333C13.5 4.45217 13.2542 5.04566 12.8166 5.48325C12.379 5.92083 11.7855 6.16667 11.1667 6.16667H9.83333V8.83333H11.1667C11.7855 8.83333 12.379 9.07917 12.8166 9.51675C13.2542 9.95434 13.5 10.5478 13.5 11.1667C13.5 11.7855 13.2542 12.379 12.8166 12.8166C12.379 13.2542 11.7855 13.5 11.1667 13.5C10.5478 13.5 9.95434 13.2542 9.51675 12.8166C9.07917 12.379 8.83333 11.7855 8.83333 11.1667V9.83333H6.16667V11.1667C6.16667 11.7855 5.92083 12.379 5.48325 12.8166C5.04566 13.2542 4.45217 13.5 3.83333 13.5C3.21449 13.5 2.621 13.2542 2.18342 12.8166C1.74583 12.379 1.5 11.7855 1.5 11.1667C1.5 10.5478 1.74583 9.95434 2.18342 9.51675C2.621 9.07917 3.21449 8.83333 3.83333 8.83333H5.16667V6.16667H3.83333C3.21449 6.16667 2.621 5.92083 2.18342 5.48325C1.74583 5.04566 1.5 4.45217 1.5 3.83333C1.5 3.21449 1.74583 2.621 2.18342 2.18342ZM5.16667 5.16667V3.83333C5.16667 3.47971 5.02619 3.14057 4.77614 2.89052C4.52609 2.64048 4.18696 2.5 3.83333 2.5C3.47971 2.5 3.14057 2.64048 2.89052 2.89052C2.64048 3.14057 2.5 3.47971 2.5 3.83333C2.5 4.18696 2.64048 4.52609 2.89052 4.77614C3.14057 5.02619 3.47971 5.16667 3.83333 5.16667H5.16667ZM6.16667 6.16667V8.83333H8.83333V6.16667H6.16667ZM5.16667 9.83333H3.83333C3.47971 9.83333 3.14057 9.97381 2.89052 10.2239C2.64048 10.4739 2.5 10.813 2.5 11.1667C2.5 11.5203 2.64048 11.8594 2.89052 12.1095C3.14057 12.3595 3.47971 12.5 3.83333 12.5C4.18696 12.5 4.52609 12.3595 4.77614 12.1095C5.02619 11.8594 5.16667 11.5203 5.16667 11.1667V9.83333ZM9.83333 9.83333V11.1667C9.83333 11.5203 9.97381 11.8594 10.2239 12.1095C10.4739 12.3595 10.813 12.5 11.1667 12.5C11.5203 12.5 11.8594 12.3595 12.1095 12.1095C12.3595 11.8594 12.5 11.5203 12.5 11.1667C12.5 10.813 12.3595 10.4739 12.1095 10.2239C11.8594 9.97381 11.5203 9.83333 11.1667 9.83333H9.83333ZM9.83333 5.16667H11.1667C11.5203 5.16667 11.8594 5.02619 12.1095 4.77614C12.3595 4.52609 12.5 4.18696 12.5 3.83333C12.5 3.47971 12.3595 3.14057 12.1095 2.89052C11.8594 2.64048 11.5203 2.5 11.1667 2.5C10.813 2.5 10.4739 2.64048 10.2239 2.89052C9.97381 3.14057 9.83333 3.47971 9.83333 3.83333V5.16667Z" fill="currentColor"/>
</svg>
