<svg viewBox="0 0 15 15" fill="currentColor" xmlns="http://www.w3.org/2000/svg">
<path fill-rule="evenodd" clip-rule="evenodd" d="M7.5 3.25C7.70422 3.25 7.89961 3.33328 8.04104 3.4806L11.541 7.12643C11.8279 7.42524 11.8182 7.90002 11.5194 8.18687C11.2206 8.47373 10.7458 8.46404 10.459 8.16523L8.25 5.86423V11C8.25 11.4142 7.91421 11.75 7.5 11.75C7.08579 11.75 6.75 11.4142 6.75 11V5.86423L4.54104 8.16523C4.25419 8.46404 3.77941 8.47373 3.4806 8.18687C3.18179 7.90002 3.1721 7.42524 3.45896 7.12643L6.95896 3.4806C7.10039 3.33328 7.29578 3.25 7.5 3.25Z" fill="currentColor"/>
</svg>
