<svg viewBox="0 0 24 24" fill="none" xmlns="http://www.w3.org/2000/svg">
    <path fill-rule="evenodd" clip-rule="evenodd" d="M12 0C18.6274 0 24 5.37258 24 12C24 18.6274 18.6274 24 12 24C5.37258 24 0 18.6274 0 12C0 5.37258 5.37258 0 12 0ZM12.8075 7.77861C13.2059 7.39614 13.8389 7.40906 14.2214 7.80747C14.6039 8.20588 14.5909 8.83891 14.1925 9.22139L11.2981 12L14.1925 14.7786C14.5909 15.1611 14.6039 15.7941 14.2214 16.1925C13.8389 16.5909 13.2059 16.6039 12.8075 16.2214L9.16163 12.7214C8.9652 12.5328 8.85417 12.2723 8.85417 12C8.85417 11.7277 8.9652 11.4672 9.16163 11.2786L12.8075 7.77861Z" fill="currentColor"/>
</svg>
