<svg viewBox="0 0 15 15" fill="currentColor" xmlns="http://www.w3.org/2000/svg">
<path fill-rule="evenodd" clip-rule="evenodd" d="M6.85357 3.85367L7.65355 3.05365C8.2981 2.40913 9.42858 1.96184 10.552 1.80137C11.1056 1.72229 11.6291 1.71737 12.0564 1.78136C12.4987 1.8476 12.7698 1.97708 12.8965 2.10369C13.0231 2.2303 13.1526 2.50137 13.2188 2.94369C13.2828 3.37098 13.2779 3.89451 13.1988 4.44813C13.0383 5.57151 12.591 6.702 11.9464 7.34657L7.49999 11.793L6.35354 10.6466C6.15827 10.4513 5.84169 10.4513 5.64643 10.6466C5.45117 10.8418 5.45117 11.1584 5.64643 11.3537L7.14644 12.8537C7.34171 13.0489 7.65829 13.0489 7.85355 12.8537L8.40073 12.3065L9.57124 14.2573C9.65046 14.3894 9.78608 14.4775 9.9389 14.4964C10.0917 14.5152 10.2447 14.4625 10.3535 14.3537L12.3535 12.3537C12.4648 12.2424 12.5172 12.0852 12.495 11.9294L12.0303 8.67691L12.6536 8.05367C13.509 7.1982 14.0117 5.82867 14.1887 4.58955C14.2784 3.96192 14.2891 3.33859 14.2078 2.79558C14.1287 2.2676 13.9519 1.74494 13.6035 1.39657C13.2552 1.04821 12.7325 0.871454 12.2045 0.792386C11.6615 0.711067 11.0382 0.721766 10.4105 0.811422C9.17143 0.988428 7.80189 1.49112 6.94644 2.34654L6.32322 2.9698L3.07071 2.50516C2.91492 2.4829 2.75773 2.53529 2.64645 2.64658L0.646451 4.64657C0.537579 4.75545 0.484938 4.90841 0.50375 5.06122C0.522563 5.21403 0.61073 5.34966 0.742757 5.42888L2.69364 6.5994L2.14646 7.14657C2.0527 7.24034 2.00002 7.36752 2.00002 7.50013C2.00002 7.63273 2.0527 7.75991 2.14646 7.85368L3.64647 9.35368C3.84173 9.54895 4.15831 9.54895 4.35357 9.35368C4.54884 9.15842 4.54884 8.84184 4.35357 8.64658L3.20712 7.50013L3.85357 6.85368L6.85357 3.85367ZM10.0993 13.1937L9.12959 11.5776L11.1464 9.56079L11.4697 11.8233L10.0993 13.1937ZM3.42251 5.87053L5.43935 3.85368L3.17678 3.53046L1.80638 4.90086L3.42251 5.87053ZM2.35356 10.3536C2.54882 10.1584 2.54882 9.84182 2.35356 9.64656C2.1583 9.4513 1.84171 9.4513 1.64645 9.64656L0.646451 10.6465C0.451188 10.8418 0.451188 11.1584 0.646451 11.3536C0.841713 11.5489 1.1583 11.5489 1.35356 11.3536L2.35356 10.3536ZM3.85358 11.8537C4.04884 11.6584 4.04885 11.3418 3.85359 11.1466C3.65833 10.9513 3.34175 10.9513 3.14648 11.1466L1.14645 13.1465C0.95119 13.3418 0.951187 13.6584 1.14645 13.8536C1.34171 14.0489 1.65829 14.0489 1.85355 13.8537L3.85358 11.8537ZM5.35356 13.3536C5.54882 13.1584 5.54882 12.8418 5.35356 12.6465C5.1583 12.4513 4.84171 12.4513 4.64645 12.6465L3.64645 13.6465C3.45119 13.8418 3.45119 14.1584 3.64645 14.3536C3.84171 14.5489 4.1583 14.5489 4.35356 14.3536L5.35356 13.3536ZM9.49997 6.74893C10.1897 6.74893 10.7488 6.18982 10.7488 5.50012C10.7488 4.81042 10.1897 4.2513 9.49997 4.2513C8.81026 4.2513 8.25115 4.81042 8.25115 5.50012C8.25115 6.18982 8.81026 6.74893 9.49997 6.74893Z" fill="currentColor"/>
</svg>
