<svg  viewBox="0 0 15 15" fill="none" xmlns="http://www.w3.org/2000/svg">
<path fill-rule="evenodd" clip-rule="evenodd" d="M14.745 9.6398C14.6832 10.7444 13.7613 11.6036 12.6552 11.5883H7.63204C7.40194 11.5859 7.21624 11.3993 7.21504 11.1695V5.7608C7.20784 5.5709 7.31794 5.396 7.49254 5.3204C7.49254 5.3204 7.95454 5 8.92774 5C9.52234 4.9994 10.1058 5.1596 10.6167 5.4641C11.4225 5.9381 11.9928 6.7283 12.1893 7.6421C12.3627 7.5932 12.5421 7.5689 12.7221 7.5695C13.2681 7.5662 13.7916 7.7846 14.1732 8.1752C14.5548 8.5655 14.7612 9.0941 14.7453 9.6398H14.745ZM6.58804 6.1028C6.73954 7.9373 6.84964 9.6104 6.58804 11.4389C6.57904 11.5214 6.50914 11.5841 6.42604 11.5841C6.34264 11.5841 6.27304 11.5214 6.26374 11.4389C6.01984 9.626 6.12604 7.9214 6.26374 6.1028C6.25684 6.0407 6.28624 5.9798 6.33934 5.9468C6.39214 5.9138 6.45934 5.9138 6.51274 5.9468C6.56554 5.9798 6.59494 6.0407 6.58804 6.1028ZM5.57164 11.4407C5.55904 11.5244 5.48704 11.5859 5.40274 11.5859C5.31814 11.5859 5.24614 11.5244 5.23354 11.4407C5.05174 9.8765 5.05174 8.2964 5.23354 6.7322C5.24284 6.6452 5.31634 6.5792 5.40364 6.5792C5.49094 6.5792 5.56414 6.6452 5.57374 6.7322C5.77564 8.2952 5.77474 9.8777 5.57164 11.4407V11.4407ZM4.55314 6.5729C4.71814 8.2538 4.79314 9.7598 4.55134 11.4368C4.55134 11.5268 4.47814 11.6 4.38814 11.6C4.29814 11.6 4.22494 11.5268 4.22494 11.4368C3.99094 9.7814 4.06954 8.2322 4.22494 6.5729C4.23394 6.4889 4.30474 6.4259 4.38904 6.4259C4.47334 6.4259 4.54414 6.4889 4.55314 6.5729ZM3.53314 11.4428C3.52354 11.5274 3.45214 11.5916 3.36664 11.5916C3.28144 11.5916 3.20974 11.5274 3.20074 11.4428C3.01294 9.9833 3.01294 8.5058 3.20074 7.0466C3.20074 6.9533 3.27634 6.8777 3.36964 6.8777C3.46294 6.8777 3.53884 6.9533 3.53884 7.0466C3.73834 8.5052 3.73624 9.9845 3.53284 11.4428H3.53314ZM2.51434 8.1458C2.77204 9.2858 2.65594 10.2926 2.50474 11.4545C2.49244 11.5319 2.42554 11.5889 2.34724 11.5889C2.26924 11.5889 2.20234 11.5319 2.19004 11.4545C2.05234 10.3085 1.93834 9.278 2.18014 8.1455C2.18014 8.0534 2.25514 7.9784 2.34724 7.9784C2.43964 7.9784 2.51434 8.0534 2.51434 8.1458V8.1458ZM1.49794 7.9727C1.73404 9.1406 1.65724 10.1294 1.49194 11.3012C1.47244 11.4743 1.17574 11.4761 1.15984 11.3012C1.01044 10.1471 0.939643 9.1286 1.15384 7.9727C1.16344 7.8848 1.23784 7.8182 1.32604 7.8182C1.41454 7.8182 1.48864 7.8848 1.49794 7.9727ZM0.471943 8.5388C0.719443 9.3134 0.634843 9.9428 0.462043 10.7369C0.453043 10.8185 0.384042 10.8803 0.301842 10.8803C0.219642 10.8803 0.150643 10.8185 0.141343 10.7369C-0.00805656 9.9584 -0.068656 9.3155 0.127844 8.5388C0.136844 8.4509 0.211243 8.3843 0.299743 8.3843C0.388243 8.3843 0.462343 8.4509 0.471643 8.5388H0.471943Z" fill="currentColor"/>
</svg>
