<!-- <svg viewBox="0 0 15 15" fill="currentColor" xmlns="http://www.w3.org/2000/svg">
<path fill-rule="evenodd" clip-rule="evenodd" d="M7 3.12499C7 3.01366 6.86551 2.95784 6.78668 3.03667L3.8448 5.97854C3.75104 6.07231 3.62386 6.12499 3.49125 6.12499H2.5C2.46685 6.12499 2.43505 6.13816 2.41161 6.1616C2.38817 6.18504 2.375 6.21684 2.375 6.24999V8.74999C2.375 8.78314 2.38817 8.81494 2.41161 8.83838C2.43505 8.86182 2.46685 8.87499 2.5 8.87499H3.49125C3.62386 8.87499 3.75104 8.92767 3.8448 9.02144L6.78668 11.9633C6.86551 12.0421 7 11.9863 7 11.875V3.12499ZM6.07957 2.32956C6.78824 1.62089 8 2.12257 8 3.12499V11.875C8 12.8774 6.78824 13.3791 6.07957 12.6704L3.28414 9.87499H2.5C2.20163 9.87499 1.91548 9.75646 1.7045 9.54549C1.49353 9.33451 1.375 9.04836 1.375 8.74999V6.24999C1.375 5.95162 1.49353 5.66547 1.7045 5.4545C1.91548 5.24352 2.20163 5.12499 2.5 5.12499H3.28414L6.07957 2.32956ZM11.1239 3.16894C11.3192 2.97368 11.6358 2.97367 11.8311 3.16893C12.3998 3.73769 12.851 4.41291 13.1588 5.15604C13.4666 5.89916 13.625 6.69564 13.625 7.49999C13.625 8.30434 13.4666 9.10082 13.1588 9.84394C12.851 10.5871 12.3998 11.2623 11.8311 11.831C11.6358 12.0263 11.3192 12.0263 11.1239 11.831C10.9287 11.6358 10.9287 11.3192 11.1239 11.1239C11.5999 10.648 11.9774 10.0831 12.2349 9.46126C12.4925 8.83946 12.625 8.17302 12.625 7.49999C12.625 6.82696 12.4925 6.16052 12.2349 5.53872C11.9774 4.91693 11.5999 4.35195 11.1239 3.87605C10.9287 3.68078 10.9287 3.3642 11.1239 3.16894ZM9.3564 4.93648C9.55164 4.7412 9.86822 4.74115 10.0635 4.93639C10.4002 5.27302 10.6673 5.67267 10.8496 6.11254C11.0318 6.55241 11.1256 7.02387 11.1256 7.49999C11.1256 7.97611 11.0318 8.44757 10.8496 8.88744C10.6673 9.32731 10.4002 9.72696 10.0635 10.0636C9.86822 10.2588 9.55164 10.2588 9.3564 10.0635C9.16116 9.86821 9.16121 9.55163 9.35649 9.35639C9.60032 9.11263 9.79374 8.82322 9.9257 8.50469C10.0577 8.18617 10.1256 7.84477 10.1256 7.49999C10.1256 7.15521 10.0577 6.81381 9.9257 6.49529C9.79374 6.17676 9.60032 5.88735 9.35649 5.64359C9.16121 5.44835 9.16116 5.13177 9.3564 4.93648Z" fill="currentColor"/>
</svg> -->

<svg viewBox="0 0 15 15" fill="currentColor" xmlns="http://www.w3.org/2000/svg">
<path fill-rule="evenodd" clip-rule="evenodd" d="M7.46968 1.05085C7.64122 1.13475 7.75 1.30904 7.75 1.5V13.5C7.75 13.691 7.64122 13.8653 7.46968 13.9492C7.29813 14.0331 7.09377 14.0119 6.94303 13.8947L3.2213 11H1.5C0.671571 11 0 10.3284 0 9.5V5.5C0 4.67158 0.671573 4 1.5 4H3.2213L6.94303 1.10533C7.09377 0.988084 7.29813 0.966944 7.46968 1.05085ZM6.75 2.52232L3.69983 4.89468C3.61206 4.96294 3.50405 5 3.39286 5H1.5C1.22386 5 1 5.22386 1 5.5V9.5C1 9.77615 1.22386 10 1.5 10H3.39286C3.50405 10 3.61206 10.0371 3.69983 10.1053L6.75 12.4777V2.52232ZM10.2784 3.84804C10.4623 3.72567 10.7106 3.77557 10.833 3.95949C12.2558 6.09798 12.2558 8.90199 10.833 11.0405C10.7106 11.2244 10.4623 11.2743 10.2784 11.1519C10.0944 11.0296 10.0445 10.7813 10.1669 10.5973C11.4111 8.72728 11.4111 6.27269 10.1669 4.40264C10.0445 4.21871 10.0944 3.97041 10.2784 3.84804ZM12.6785 1.43044C12.5356 1.2619 12.2832 1.24104 12.1147 1.38386C11.9462 1.52667 11.9253 1.77908 12.0681 1.94762C14.7773 5.14488 14.7773 9.85513 12.0681 13.0524C11.9253 13.2209 11.9462 13.4733 12.1147 13.6161C12.2832 13.759 12.5356 13.7381 12.6785 13.5696C15.6406 10.0739 15.6406 4.92612 12.6785 1.43044Z" fill="currentColor"/>
</svg>
