<svg viewBox="0 0 15 15" fill="currentColor" xmlns="http://www.w3.org/2000/svg">
<path fill-rule="evenodd" clip-rule="evenodd" d="M7.23348 5.12772C7.23348 3.40027 8.63347 2 10.3601 2C11.3737 2 12.1831 2.47947 12.7255 3.17528C13.308 3.0561 13.8558 2.84056 14.3514 2.54651C14.156 3.15741 13.7425 3.67103 13.2034 3.99606C13.2039 3.99711 13.2043 3.99817 13.2048 3.99922C13.7335 3.93504 14.2365 3.79445 14.7049 3.58689L14.7038 3.58858C14.3668 4.09326 13.9432 4.53879 13.4562 4.90177C13.4824 5.07815 13.4957 5.2557 13.4957 5.43222C13.4957 9.11853 10.6874 13.406 5.52134 13.406C3.93918 13.406 2.46556 12.9424 1.22517 12.1466C0.992754 11.9975 0.92523 11.6882 1.07435 11.4558C1.08752 11.4352 1.10195 11.416 1.11746 11.398C1.20594 11.2516 1.3745 11.1623 1.55552 11.1836C2.47078 11.2915 3.3858 11.1799 4.19231 10.8276C3.39238 10.4748 2.77141 9.79118 2.50216 8.95117C2.45371 8.80003 2.48847 8.63454 2.59363 8.51565C2.59728 8.51153 2.60099 8.50749 2.60476 8.50353C1.96403 7.93962 1.55985 7.11351 1.55985 6.19286V6.15902C1.55985 5.99957 1.64423 5.85202 1.78167 5.77117C1.82683 5.7446 1.87549 5.72654 1.92544 5.71701C1.70561 5.29297 1.58128 4.81127 1.58128 4.30101C1.58128 3.83308 1.58396 3.24335 1.91344 2.71224C1.9873 2.59318 2.1077 2.52058 2.23652 2.50338C2.426 2.4438 2.64099 2.50112 2.77418 2.66445C3.86548 4.00269 5.44078 4.92726 7.23378 5.17104L7.23348 5.12772ZM5.52134 12.406C4.73399 12.406 3.97793 12.2749 3.2726 12.0337C4.13024 11.8852 4.95319 11.5473 5.6623 10.9916C5.81223 10.8741 5.87194 10.6749 5.81138 10.4943C5.75082 10.3138 5.58312 10.1909 5.39267 10.1875C4.6898 10.1751 4.06724 9.82859 3.67805 9.29988C3.8684 9.28449 4.0544 9.25182 4.23457 9.2031C4.43615 9.14859 4.57375 8.96257 4.56686 8.75386C4.55997 8.54515 4.41041 8.36861 4.20567 8.3275C3.42706 8.1712 2.79895 7.59907 2.56181 6.85317C2.76267 6.90168 2.97114 6.93053 3.18494 6.93753C3.38575 6.9441 3.56658 6.81676 3.62807 6.62548C3.68955 6.4342 3.61678 6.22534 3.44975 6.11367C2.86535 5.72298 2.48128 5.05607 2.48128 4.30101C2.48128 4.13356 2.48364 3.98411 2.49367 3.84862C3.85127 5.23056 5.70885 6.12074 7.776 6.22481C7.93237 6.23269 8.0834 6.16686 8.18407 6.04696C8.28475 5.92705 8.32344 5.76691 8.28863 5.61427C8.25267 5.4566 8.23348 5.29427 8.23348 5.12772C8.23348 3.95228 9.18603 3 10.3601 3C11.5944 3 12.4957 4.14351 12.4957 5.43222C12.4957 8.68852 10.0203 12.406 5.52134 12.406Z" fill="currentColor"/>
</svg>
