<svg viewBox="0 0 15 15" fill="currentColor" xmlns="http://www.w3.org/2000/svg">
<path fill-rule="evenodd" clip-rule="evenodd" d="M1.90569 7.505C1.90569 4.41266 4.41253 1.90581 7.50488 1.90581C10.5972 1.90581 13.1041 4.41266 13.1041 7.505C13.1041 10.5974 10.5972 13.1042 7.50488 13.1042C4.41253 13.1042 1.90569 10.5974 1.90569 7.505ZM7.50488 0.880005C3.846 0.880005 0.879883 3.84612 0.879883 7.505C0.879883 11.1639 3.846 14.13 7.50488 14.13C11.1638 14.13 14.1299 11.1639 14.1299 7.505C14.1299 3.84612 11.1638 0.880005 7.50488 0.880005ZM10.5829 5.07565C10.6443 4.89134 10.5963 4.68815 10.459 4.55077C10.3216 4.4134 10.1184 4.36543 9.9341 4.42687L6.04681 5.72263C5.89365 5.77368 5.77347 5.89387 5.72242 6.04702L4.42665 9.93431C4.36522 10.1186 4.41319 10.3218 4.55056 10.4592C4.68793 10.5966 4.89113 10.6445 5.07543 10.5831L8.96272 9.28733C9.11588 9.23627 9.23606 9.11609 9.28711 8.96294L10.5829 5.07565ZM5.72421 9.28554L6.61448 6.6147L9.28532 5.72442L8.39504 8.39526L5.72421 9.28554Z" fill="currentColor"/>
</svg>
